<svg version="1.1" viewBox="0 0 32 32" xmlns="http://www.w3.org/2000/svg">
 <path d="M16 .055C7.197.055.055 7.197.055 16c0 8.802 7.143 15.945 15.945 15.945 8.803 0 15.945-7.143 15.945-15.945C31.945 7.197 24.802.055 16 .055zm0 2.14c7.627 0 13.805 6.178 13.805 13.805 0 7.628-6.177 13.805-13.805 13.805-7.627 0-13.803-6.178-13.803-13.805C2.197 8.374 8.373 2.196 16 2.195zm1.932 4.446c-.982 0-1.778.758-1.778 1.877 0 1.118.796 1.875 1.778 1.875.981 0 1.777-.758 1.777-1.875 0-1.12-.795-1.877-1.777-1.877zm-1.246 4.955c-1.3 0-3.215 1.467-4.381 3.324 0 .222-.038.772.005 1.103l1.551-1.98c.321-.373.692-.635.881-.565.19.07.294.307.233.528l-2.567 9.027c-.296 1.055.264 2.09 1.627 2.326 1.996 0 3.18-1.434 4.346-3.29 0-.223.07-.805.027-1.137l-1.549 1.98c-.321.373-.722.632-.912.563-.175-.065-.276-.272-.242-.479l2.586-9.064c.215-1.152-.37-2.2-1.606-2.334v-.002z"/>
</svg>
